<?xml version="1.0" encoding="iso-8859-1"?>

<!DOCTYPE svg PUBLIC "-//W3C//DTD SVG 1.1//EN" "http://www.w3.org/Graphics/SVG/1.1/DTD/svg11.dtd">
<!-- Uploaded to: SVG Repo, www.svgrepo.com, Generator: SVG Repo Mixer Tools -->
<svg height="800px" width="800px" version="1.1" id="_x36_" xmlns="http://www.w3.org/2000/svg" xmlns:xlink="http://www.w3.org/1999/xlink" 
	 viewBox="0 0 512 512"  xml:space="preserve">
<g>
	<g>
		<path style="fill:#D3CDBD;" d="M343.746,404.467c0,31.475-25.512,56.99-56.987,56.99h-61.518
			c-31.468,0-56.987-25.515-56.987-56.99l0,0c0-31.475,25.519-56.99,56.987-56.99h61.518
			C318.234,347.477,343.746,372.992,343.746,404.467L343.746,404.467z"/>
		<polygon style="fill:#DBDFEA;" points="253.041,403.55 256,402.138 258.959,403.55 		"/>
		<path style="fill:#DBDFEA;" d="M512,320.369h-45.525v45.188l-38.867-8.136l-13.583,38.934l-36.178-16.34l-18.089,34.429
			l-16.004-9.212l-0.067-0.067l-19.837-11.432l-22.998-13.247l-10.288,4.976l-5.379,2.623l-8.204,3.9l-0.067,0.067L256,402.138
			l-5.312-2.555l-10.625-5.111l-0.067-0.067l-12.575-6.052l-5.985-2.892l-10.288-4.976l-24.477,14.121l-18.425,10.625l-16.004,9.212
			l-18.089-34.429l-28.444,12.844l-7.733,3.497l-6.052-17.282l-7.531-21.653l-11.633,2.421l-27.234,5.716v-45.188H0l10.289-22.998
			l73.834-165.219c0,0,25.822-77.533,35.303-107.86c1.143-3.698,2.084-6.724,2.69-8.809c3.429-12.171,12.44-16.542,21.316-15.197
			c5.043,0.605,10.019,3.093,13.92,7.061c10.894,10.826,54.333,65.16,54.333,65.16h88.629c0,0,43.44-54.333,54.333-65.16
			c2.69-2.757,5.918-4.775,9.347-5.985c10.154-3.698,21.854-0.135,25.889,14.121c1.009,3.43,2.892,9.482,5.38,17.147
			c10.826,34.16,32.613,99.522,32.613,99.522L512,320.369z"/>
		<g>
			<g>
				<polygon style="fill:#FEFFFF;" points="182.72,100.517 147.443,54.382 133.876,100.517 				"/>
			</g>
			<g>
				<polygon style="fill:#FEFFFF;" points="329.28,100.517 364.556,54.382 378.124,100.517 				"/>
			</g>
		</g>
		<path style="fill:#FEFFFF;" d="M256,403.564h32.565c0,0,27.331,1.084,48.312-19.9c25.328-25.329,35.139-78.028,35.139-78.028
			c22.386-3.392,64.329-66.575,18.315-108.326c-48.844-44.326-127.548,3.165-118.499,79.154v74.592l14.382,39.844L256,394.518v1.806
			l-30.22-3.615l14.388-39.844v-74.593c9.042-75.992-69.655-123.483-118.505-79.154c-46.007,41.752-4.072,104.935,18.315,108.327
			c0,0,9.817,52.695,35.139,78.024c20.988,20.988,48.312,19.901,48.312,19.901H256V403.564z"/>
		<g>
			<g>
				<path style="fill:#564236;" d="M180.606,252.914h-18.611l6.022,8.163c-0.781,1.733-1.228,3.628-1.228,5.637
					c0,7.631,6.179,13.82,13.817,13.82c7.618,0,13.803-6.189,13.803-13.82C194.409,259.096,188.224,252.914,180.606,252.914z"/>
			</g>
			<g>
				<path style="fill:#564236;" d="M331.394,252.914h18.611l-6.015,8.163c0.775,1.733,1.221,3.628,1.221,5.637
					c0,7.631-6.18,13.82-13.817,13.82c-7.617,0-13.803-6.189-13.803-13.82C317.591,259.096,323.776,252.914,331.394,252.914z"/>
			</g>
		</g>
		<path style="fill:#71605B;" d="M283.049,383.887c-5.76,0-27.049,0-27.049,0s-21.296,0-27.049,0
			c-16.115,0-26.464,19.562-13.803,35.677c15.78,20.095,30.49,20.715,40.852,20.715c10.356,0,25.065-0.621,40.852-20.715
			C309.52,403.449,299.164,383.887,283.049,383.887z"/>
	</g>
	<path style="opacity:0.23;fill:#71605B;" d="M512,320.369h-45.525v45.188l-38.867-8.136l-13.583,38.934l-36.178-16.34
		l-18.089,34.429l-16.004-9.212v-0.067h-0.067c0,0.941-0.067,1.95-0.067,2.891c-0.135,1.95-0.336,3.833-0.673,5.716
		c-0.269,1.681-0.605,3.362-1.008,4.976c-0.135,0.269-0.202,0.605-0.269,0.941c-0.202,0.74-0.404,1.48-0.672,2.219
		c-1.547,4.707-3.632,9.145-6.254,13.247c-0.74,1.21-1.547,2.353-2.354,3.429c-4.976,6.658-11.364,12.104-18.626,16.072
		c-2.219,1.143-4.506,2.219-6.859,3.093c-1.076,0.471-2.152,0.807-3.228,1.143c-1.614,0.471-3.228,0.941-4.842,1.278
		c-3.9,0.807-7.935,1.278-12.104,1.278h-36.043V72.505h49.627c0,0,43.44-54.333,54.333-65.16c2.69-2.757,5.918-4.775,9.347-5.985
		c10.154-3.698,21.854-0.135,25.889,14.121c1.009,3.43,2.892,9.482,5.38,17.147c10.826,34.16,32.613,99.522,32.613,99.522
		L512,320.369z"/>
</g>
</svg>